{
  "accessors": [
    {
      "bufferView": 2,
      "componentType": 5126,
      "count": 65532,
      "max": [
        0.77265238761901855,
        3.0019292831420898,
        0.61728000640869141
      ],
      "min": [
        -1.1791038513183594,
        0.032341241836547852,
        -0.513965904712677
      ],
      "type": "VEC3"
    },
    {
      "bufferView": 2,
      "byteOffset": 786384,
      "componentType": 5126,
      "count": 65532,
      "max": [
        1,
        1,
        1
      ],
      "min": [
        -1,
        -1,
        -1
      ],
      "type": "VEC3"
    },
    {
      "bufferView": 3,
      "componentType": 5126,
      "count": 65532,
      "max": [
        1,
        0.99998968839645386,
        1,
        1
      ],
      "min": [
        -1,
        -0.99997740983963013,
        -1,
        -1
      ],
      "type": "VEC4"
    },
    {
      "bufferView": 1,
      "componentType": 5126,
      "count": 65532,
      "max": [
        0.99505001306533813,
        0.99734002351760864
      ],
      "min": [
        0.0062500000931322575,
        0.0024300001095980406
      ],
      "type": "VEC2"
    },
    {
      "bufferView": 0,
      "componentType": 5125,
      "count": 329694,
      "max": [
        65531
      ],
      "min": [
        0
      ],
      "type": "SCALAR"
    },
    {
      "bufferView": 2,
      "byteOffset": 1572768,
      "componentType": 5126,
      "count": 65532,
      "max": [
        0.58810186386108398,
        2.6031594276428223,
        0.49515613913536072
      ],
      "min": [
        0.21643084287643433,
        2.1874604225158691,
        -0.17330716550350189
      ],
      "type": "VEC3"
    },
    {
      "bufferView": 2,
      "byteOffset": 2359152,
      "componentType": 5126,
      "count": 65532,
      "max": [
        0.99998390674591064,
        0.999947190284729,
        0.99998444318771362
      ],
      "min": [
        -0.99993598461151123,
        -0.99994397163391113,
        -0.99997937679290771
      ],
      "type": "VEC3"
    },
    {
      "bufferView": 3,
      "byteOffset": 1048512,
      "componentType": 5126,
      "count": 65532,
      "max": [
        0.99999934434890747,
        0.99999803304672241,
        0.99999618530273438,
        1
      ],
      "min": [
        -0.99988579750061035,
        -0.99999850988388062,
        -0.99999046325683594,
        -1
      ],
      "type": "VEC4"
    },
    {
      "bufferView": 1,
      "byteOffset": 524256,
      "componentType": 5126,
      "count": 65532,
      "max": [
        0.98956072330474854,
        0.73542654514312744
      ],
      "min": [
        0.063889384269714355,
        0.009894542396068573
      ],
      "type": "VEC2"
    },
    {
      "bufferView": 0,
      "byteOffset": 1318776,
      "componentType": 5125,
      "count": 270639,
      "max": [
        65531
      ],
      "min": [
        0
      ],
      "type": "SCALAR"
    },
    {
      "bufferView": 2,
      "byteOffset": 3145536,
      "componentType": 5126,
      "count": 6415,
      "max": [
        0.64976048469543457,
        2.942136287689209,
        0.57314598560333252
      ],
      "min": [
        -1.1801173686981201,
        0.032341241836547852,
        -0.30510857701301575
      ],
      "type": "VEC3"
    },
    {
      "bufferView": 2,
      "byteOffset": 3222516,
      "componentType": 5126,
      "count": 6415,
      "max": [
        0.99996829032897949,
        0.999286949634552,
        0.99995720386505127
      ],
      "min": [
        -0.99984902143478394,
        -0.99906975030899048,
        -0.99964481592178345
      ],
      "type": "VEC3"
    },
    {
      "bufferView": 3,
      "byteOffset": 2097024,
      "componentType": 5126,
      "count": 6415,
      "max": [
        0.99996507167816162,
        0.99873024225234985,
        0.99967485666275024,
        1
      ],
      "min": [
        -0.99992197751998901,
        -0.99830824136734009,
        -0.99980384111404419,
        -1
      ],
      "type": "VEC4"
    },
    {
      "bufferView": 1,
      "byteOffset": 1048512,
      "componentType": 5126,
      "count": 6415,
      "max": [
        0.7704777717590332,
        0.80635929107666016
      ],
      "min": [
        0.035008907318115234,
        0.0014150440692901611
      ],
      "type": "VEC2"
    },
    {
      "bufferView": 0,
      "byteOffset": 2401332,
      "componentType": 5125,
      "count": 33336,
      "max": [
        6414
      ],
      "min": [
        0
      ],
      "type": "SCALAR"
    }
  ],
  "asset": {
    "extras": {
      "author": "bharathsrk13 (https://sketchfab.com/bharathsrk13)",
      "license": "CC-BY-4.0 (http://creativecommons.org/licenses/by/4.0/)",
      "source": "https://sketchfab.com/3d-models/santa-final-2db359413e2c476486f0643e6bcda1fe",
      "title": "Santa final"
    },
    "generator": "Sketchfab-7.10.0",
    "version": "2.0"
  },
  "bufferViews": [
    {
      "buffer": 0,
      "byteLength": 2534676,
      "byteOffset": 0,
      "name": "floatBufferViews",
      "target": 34963
    },
    {
      "buffer": 0,
      "byteLength": 1099832,
      "byteOffset": 2534676,
      "byteStride": 8,
      "name": "floatBufferViews",
      "target": 34962
    },
    {
      "buffer": 0,
      "byteLength": 3299496,
      "byteOffset": 3634508,
      "byteStride": 12,
      "name": "floatBufferViews",
      "target": 34962
    },
    {
      "buffer": 0,
      "byteLength": 2199664,
      "byteOffset": 6934004,
      "byteStride": 16,
      "name": "floatBufferViews",
      "target": 34962
    }
  ],
  "buffers": [
    {
      "byteLength": 9133668,
      "uri": "scene.bin"
    }
  ],
  "images": [
    {
      "uri": "textures/Mat_Santa_baseColor.jpeg"
    }
  ],
  "materials": [
    {
      "doubleSided": true,
      "emissiveFactor": [
        0,
        0,
        0
      ],
      "name": "Mat_Santa",
      "pbrMetallicRoughness": {
        "baseColorFactor": [
          1,
          1,
          1,
          1
        ],
        "baseColorTexture": {
          "index": 0,
          "texCoord": 0
        },
        "metallicFactor": 0,
        "roughnessFactor": 1
      }
    }
  ],
  "meshes": [
    {
      "name": "Santa_Mat_Santa_0",
      "primitives": [
        {
          "attributes": {
            "NORMAL": 1,
            "POSITION": 0,
            "TANGENT": 2,
            "TEXCOORD_0": 3
          },
          "indices": 4,
          "material": 0,
          "mode": 4
        }
      ]
    },
    {
      "name": "Santa_Mat_Santa_0",
      "primitives": [
        {
          "attributes": {
            "NORMAL": 6,
            "POSITION": 5,
            "TANGENT": 7,
            "TEXCOORD_0": 8
          },
          "indices": 9,
          "material": 0,
          "mode": 4
        }
      ]
    },
    {
      "name": "Santa_Mat_Santa_0",
      "primitives": [
        {
          "attributes": {
            "NORMAL": 11,
            "POSITION": 10,
            "TANGENT": 12,
            "TEXCOORD_0": 13
          },
          "indices": 14,
          "material": 0,
          "mode": 4
        }
      ]
    }
  ],
  "nodes": [
    {
      "children": [
        1
      ],
      "name": "RootNode (gltf orientation matrix)",
      "rotation": [
        -0.70710678118654746,
        -0,
        -0,
        0.70710678118654757
      ]
    },
    {
      "children": [
        2
      ],
      "name": "RootNode (model correction matrix)"
    },
    {
      "children": [
        3
      ],
      "matrix": [
        1,
        0,
        0,
        0,
        0,
        0,
        1,
        0,
        0,
        -1,
        0,
        0,
        0,
        0,
        0,
        1
      ],
      "name": "Mod_Santa.fbx"
    },
    {
      "children": [
        4
      ],
      "name": "RootNode"
    },
    {
      "children": [
        5,
        6,
        7
      ],
      "matrix": [
        1,
        0,
        0,
        0,
        0,
        1,
        0,
        0,
        0,
        0,
        1,
        0,
        0,
        -0.034250259399414062,
        0,
        1
      ],
      "name": "Santa"
    },
    {
      "mesh": 0,
      "name": "Santa_Mat_Santa_0"
    },
    {
      "mesh": 1,
      "name": "Santa_Mat_Santa_0"
    },
    {
      "mesh": 2,
      "name": "Santa_Mat_Santa_0"
    }
  ],
  "samplers": [
    {
      "magFilter": 9729,
      "minFilter": 9987,
      "wrapS": 10497,
      "wrapT": 10497
    }
  ],
  "scene": 0,
  "scenes": [
    {
      "name": "OSG_Scene",
      "nodes": [
        0
      ]
    }
  ],
  "textures": [
    {
      "sampler": 0,
      "source": 0
    }
  ]
}

